Coordinates
version=1
nRows=7
nColumns=42
inDegrees=yes

Units are S.I. units (second, meters, Newtons, ...)
If the header above contains a line with 'inDegrees', this indicates whether rotational values are in degrees (yes) or radians (no).

endheader
time	pelvis_tilt	pelvis_list	pelvis_rotation	pelvis_tx	pelvis_ty	pelvis_tz	hip_flexion_r	hip_adduction_r	hip_rotation_r	knee_angle_r	knee_adduction_r	knee_angle_r_beta	ankle_angle_r	subtalar_angle_r	mtp_angle_r	hip_flexion_l	hip_adduction_l	hip_rotation_l	knee_angle_l	knee_adduction_l	knee_angle_l_beta	ankle_angle_l	subtalar_angle_l	mtp_angle_l	lumbar_extension	lumbar_bending	lumbar_rotation	arm_flex_r	arm_add_r	arm_rot_r	elbow_flex_r	pro_sup_r	wrist_flex_r	wrist_dev_r	arm_flex_l	arm_add_l	arm_rot_l	elbow_flex_l	pro_sup_l	wrist_flex_l	wrist_dev_l
      1.04000000	     11.06810038	      3.24768503	      8.76560187	     -1.61769395	      0.91206228	      0.00519091	     10.32816111	    -12.57037830	    -27.70365229	     26.99269114	      7.50620722	      0.47111133	     10.50939789	     31.58575575	     -7.90811173	    -17.23361966	      5.91737298	     -4.57459882	     17.83977502	     -3.51492703	      0.31136281	     19.30762416	      3.88451747	     -7.90811173	    -31.70873061	     -5.58026790	    -10.74388751	    -25.55154693	    -14.59001691	     10.77013708	     46.25563517	     90.00000001	      0.00000000	      0.00000000	     29.81291332	    -13.72126135	      4.20716961	     40.61496862	     90.00000001	      0.00000000	      0.00000000
      1.05000000	     11.21351144	      3.19448739	      8.80811943	     -1.60887954	      0.91152263	      0.00541937	      9.70031635	    -12.39161437	    -29.28481688	     24.94473501	      7.80918382	      0.43536776	      9.15574140	     33.26880425	     -7.90331367	    -18.06373463	      5.61317202	     -4.38531328	     17.75740326	     -3.27622954	      0.30992515	     19.26122723	      3.76917787	     -7.90331367	    -31.66961293	     -5.44870374	    -10.59698665	    -25.82086251	    -14.48186526	     10.45563853	     46.16378376	     90.00000001	      0.00000000	      0.00000000	     29.94522345	    -13.61327657	      4.58061744	     40.22513693	     90.00000001	      0.00000000	      0.00000000
      1.06000000	     11.05866083	      3.34121706	      8.79257210	     -1.60024416	      0.91046530	      0.00556347	      9.56928570	    -12.49512362	    -30.47995510	     23.47229254	      8.01906322	      0.40966879	      8.65832533	     33.99351336	     -7.90188817	    -18.55860623	      5.74302011	     -4.34391270	     17.67422942	     -3.41691649	      0.30847350	     19.27818737	      3.72729428	     -7.90188817	    -31.37708255	     -5.57193583	    -10.56789985	    -25.98027657	    -14.40682080	     10.33325560	     46.08922396	     90.00000001	      0.00000000	      0.00000000	     29.97356465	    -13.54959684	      4.77910124	     39.90751543	     90.00000001	      0.00000000	      0.00000000
      1.07000000	     11.13267074	      3.28766684	      8.91260884	     -1.59130861	      0.90993076	      0.00568639	      8.92841329	    -12.32441741	    -31.82866176	     21.70642981	      8.38179247	      0.37884867	      7.35035607	     35.22737566	     -7.89949350	    -19.29811046	      5.48485135	     -4.10683346	     17.61196263	     -3.34877312	      0.30738674	     19.12495843	      3.74792759	     -7.89949350	    -31.27287602	     -5.38785346	    -10.50364772	    -26.06955639	    -14.31697321	     10.04778126	     45.91053496	     90.00000001	      0.00000000	      0.00000000	     30.01419059	    -13.48083153	      5.10529099	     39.44124826	     90.00000001	      0.00000000	      0.00000000
      1.08000000	     11.20841340	      3.20823153	      8.92024927	     -1.58219314	      0.90939846	      0.00607564	      8.39139045	    -12.09537002	    -33.00991162	     20.38490494	      8.61602151	      0.35578371	      6.43206490	     35.95125290	     -7.89649561	    -20.08903030	      5.21255755	     -4.04994452	     17.44932110	     -3.26698064	      0.30454811	     19.03378137	      3.72285297	     -7.89649561	    -31.15227548	     -5.21767347	    -10.34144534	    -26.08065829	    -14.23729141	      9.78998034	     45.72590866	     90.00000001	      0.00000000	      0.00000000	     29.94240872	    -13.42748479	      5.35027775	     39.14072068	     90.00000001	      0.00000000	      0.00000000
      1.09000000	     11.25245411	      3.12107257	      8.93213282	     -1.57301857	      0.90889237	      0.00649348	      7.89036755	    -11.87352350	    -33.88729540	     19.30462873	      8.89131616	      0.33692933	      5.63422669	     36.34422227	     -7.89248007	    -20.80522745	      4.92895949	     -3.99135212	     17.36154205	     -3.17283202	      0.30301607	     18.89245241	      3.71164706	     -7.89248007	    -31.00206220	     -5.02920561	    -10.17604015	    -25.99562632	    -14.16088582	      9.57350983	     45.48880786	     90.00000001	      0.00000000	      0.00000000	     29.81526415	    -13.37889934	      5.55106412	     38.85309071	     90.00000001	      0.00000000	      0.00000000
      1.10000000	     11.35779238	      2.96366603	      8.93045649	     -1.56367817	      0.90860228	      0.00710963	      7.32264049	    -11.51136436	    -34.46766818	     18.38616490	      9.10063240	      0.32089911	      4.85443704	     36.47279317	     -7.88580901	    -21.57157560	      4.52409320	     -3.90870667	     17.30275269	     -3.00424965	      0.30199000	     18.70404333	      3.64203289	     -7.88580901	    -30.90560592	     -4.76916418	     -9.96244294	    -25.82725186	    -14.08524455	      9.33558897	     45.22573461	     90.00000001	      0.00000000	      0.00000000	     29.63247786	    -13.34389824	      5.71195929	     38.63253561	     90.00000001	      0.00000000	      0.00000000
